<?xml version="1.0" encoding="utf-8"?>
<svg xmlns="http://www.w3.org/2000/svg" width="130" height="32" viewBox="0 0 130 32" fill="none">
<path d="M0.628174 31.4346V26.1754H2.71722C3.09217 26.1754 3.41113 26.2363 3.67409 26.358C3.93704 26.4798 4.1367 26.6551 4.27304 26.884C4.41426 27.1128 4.48487 27.388 4.48487 27.7094C4.48487 28.0307 4.41426 28.3083 4.27304 28.542C4.1367 28.7709 3.93704 28.9487 3.67409 29.0753C3.41113 29.2019 3.09217 29.2652 2.71722 29.2652H1.06643V28.7393H2.6953C3.08487 28.7393 3.37948 28.6516 3.57913 28.4763C3.78365 28.2961 3.88591 28.0405 3.88591 27.7094C3.88591 27.3782 3.78609 27.1274 3.58644 26.957C3.38678 26.7866 3.08974 26.7014 2.6953 26.7014H1.22713V31.4346H0.628174ZM7.1094 31.4346C7.08992 31.3518 7.07531 31.2568 7.06557 31.1497C7.0607 31.0426 7.05827 30.9062 7.05827 30.7407H7.02175V28.9584C7.02175 28.676 6.95601 28.469 6.82453 28.3375C6.69792 28.2012 6.49097 28.133 6.20366 28.133C5.92123 28.133 5.69479 28.1914 5.52436 28.3083C5.35879 28.4203 5.26627 28.581 5.24679 28.7904H4.68436C4.7087 28.43 4.85966 28.1476 5.13723 27.9431C5.41479 27.7386 5.77757 27.6363 6.22557 27.6363C6.68818 27.6363 7.03149 27.7459 7.25549 27.965C7.47949 28.1841 7.59149 28.5128 7.59149 28.9511V30.7407C7.59149 30.8478 7.59879 30.9598 7.6134 31.0767C7.62801 31.1887 7.64749 31.308 7.67183 31.4346H7.1094ZM5.83114 31.5076C5.44644 31.5076 5.13966 31.4151 4.91079 31.23C4.68679 31.0401 4.57479 30.782 4.57479 30.4558C4.57479 30.1295 4.68679 29.8763 4.91079 29.6961C5.13479 29.516 5.46105 29.3894 5.88957 29.3163L7.18975 29.0972V29.5793L5.97723 29.7692C5.70453 29.813 5.49757 29.886 5.35636 29.9883C5.21514 30.0906 5.14453 30.2391 5.14453 30.4339C5.14453 30.6238 5.20783 30.7674 5.33444 30.8648C5.46592 30.9622 5.65827 31.0109 5.91149 31.0109C6.23775 31.0109 6.50314 30.9379 6.70766 30.7918C6.91705 30.6408 7.02175 30.446 7.02175 30.2074L7.1167 30.726C7.03879 30.9744 6.8854 31.1667 6.65653 31.3031C6.43253 31.4394 6.1574 31.5076 5.83114 31.5076ZM8.37001 31.4346V27.7094H8.91784V28.6589H8.95436V31.4346H8.37001ZM8.95436 29.4916L8.85941 28.6078C8.94706 28.2913 9.10288 28.0502 9.32688 27.8847C9.55088 27.7191 9.80897 27.6363 10.1011 27.6363C10.2229 27.6363 10.3057 27.646 10.3495 27.6655V28.228C10.3251 28.2182 10.2911 28.2134 10.2472 28.2134C10.2034 28.2085 10.1498 28.206 10.0865 28.206C9.71645 28.206 9.43401 28.318 9.23923 28.542C9.04932 28.7612 8.95436 29.0777 8.95436 29.4916ZM12.337 31.5003C11.9231 31.5003 11.6212 31.4078 11.4313 31.2227C11.2462 31.0328 11.1537 30.7601 11.1537 30.4047V26.8401L11.738 26.621V30.3974C11.738 30.6067 11.7916 30.7601 11.8987 30.8575C12.0059 30.9549 12.1812 31.0036 12.4247 31.0036C12.522 31.0036 12.6048 30.9987 12.673 30.989C12.746 30.9744 12.8045 30.9574 12.8483 30.9379V31.4346C12.7996 31.454 12.729 31.4687 12.6365 31.4784C12.5488 31.493 12.449 31.5003 12.337 31.5003ZM10.3867 28.206V27.7094H12.8483V28.206H10.3867ZM15.9155 31.5076C15.5503 31.5076 15.2289 31.4224 14.9513 31.252C14.6737 31.0815 14.457 30.8502 14.3012 30.558C14.1503 30.261 14.0748 29.9274 14.0748 29.5574C14.0748 29.1824 14.1527 28.8513 14.3085 28.564C14.4643 28.2767 14.6786 28.0502 14.9513 27.8847C15.2289 27.7191 15.5503 27.6363 15.9155 27.6363C16.2856 27.6363 16.607 27.7191 16.8797 27.8847C17.1572 28.0502 17.3715 28.2767 17.5224 28.564C17.6783 28.8513 17.7562 29.1824 17.7562 29.5574C17.7562 29.9274 17.6783 30.261 17.5224 30.558C17.3715 30.8502 17.1572 31.0815 16.8797 31.252C16.607 31.4224 16.2856 31.5076 15.9155 31.5076ZM15.9155 31.0109C16.1687 31.0109 16.3878 30.95 16.5729 30.8283C16.7579 30.7017 16.9016 30.5288 17.0038 30.3097C17.1061 30.0906 17.1572 29.8374 17.1572 29.55C17.1572 29.1215 17.0428 28.7782 16.8139 28.5201C16.5899 28.262 16.2904 28.133 15.9155 28.133C15.5454 28.133 15.2459 28.262 15.017 28.5201C14.7882 28.7782 14.6737 29.1215 14.6737 29.55C14.6737 29.8374 14.7249 30.0906 14.8271 30.3097C14.9294 30.5288 15.073 30.7017 15.2581 30.8283C15.448 30.95 15.6671 31.0109 15.9155 31.0109ZM18.5559 31.4346V27.1834C18.5559 26.8426 18.6533 26.5772 18.848 26.3873C19.0477 26.1974 19.3496 26.1024 19.7538 26.1024C19.8512 26.1024 19.9267 26.1073 19.9802 26.117C20.0387 26.1267 20.0874 26.1389 20.1263 26.1535V26.6137C20.0922 26.604 20.0435 26.5942 19.9802 26.5845C19.9218 26.5747 19.8585 26.5699 19.7903 26.5699C19.5663 26.5699 19.4007 26.6259 19.2936 26.7379C19.1914 26.8499 19.1402 27.0081 19.1402 27.2127V31.4346H18.5559ZM17.7889 28.206V27.7094H20.046V28.206H17.7889ZM21.2765 31.4346L23.3072 26.1754H23.8331L21.8536 31.4346H21.2765ZM25.4546 31.4346L23.4752 26.1754H24.0376L26.0682 31.4346H25.4546ZM22.2845 29.309H25.031V29.8349H22.2845V29.309ZM26.5643 31.4346V26.1754H27.1487V31.4346H26.5643ZM28.278 31.4346V27.1834C28.278 26.8426 28.3754 26.5772 28.5702 26.3873C28.7698 26.1974 29.0718 26.1024 29.4759 26.1024C29.5733 26.1024 29.6488 26.1073 29.7024 26.117C29.7608 26.1267 29.8095 26.1389 29.8485 26.1535V26.6137C29.8144 26.604 29.7657 26.5942 29.7024 26.5845C29.6439 26.5747 29.5806 26.5699 29.5125 26.5699C29.2885 26.5699 29.1229 26.6259 29.0158 26.7379C28.9135 26.8499 28.8624 27.0081 28.8624 27.2127V31.4346H28.278ZM27.5111 28.206V27.7094H29.7681V28.206H27.5111ZM32.3849 31.4346C32.3654 31.3518 32.3508 31.2568 32.341 31.1497C32.3362 31.0426 32.3337 30.9062 32.3337 30.7407H32.2972V28.9584C32.2972 28.676 32.2315 28.469 32.1 28.3375C31.9734 28.2012 31.7664 28.133 31.4791 28.133C31.1967 28.133 30.9703 28.1914 30.7998 28.3083C30.6343 28.4203 30.5417 28.581 30.5223 28.7904H29.9598C29.9842 28.43 30.1351 28.1476 30.4127 27.9431C30.6903 27.7386 31.053 27.6363 31.501 27.6363C31.9637 27.6363 32.307 27.7459 32.531 27.965C32.755 28.1841 32.867 28.5128 32.867 28.9511V30.7407C32.867 30.8478 32.8743 30.9598 32.8889 31.0767C32.9035 31.1887 32.923 31.308 32.9473 31.4346H32.3849ZM31.1066 31.5076C30.7219 31.5076 30.4151 31.4151 30.1863 31.23C29.9623 31.0401 29.8503 30.782 29.8503 30.4558C29.8503 30.1295 29.9623 29.8763 30.1863 29.6961C30.4103 29.516 30.7365 29.3894 31.165 29.3163L32.4652 29.0972V29.5793L31.2527 29.7692C30.98 29.813 30.773 29.886 30.6318 29.9883C30.4906 30.0906 30.42 30.2391 30.42 30.4339C30.42 30.6238 30.4833 30.7674 30.6099 30.8648C30.7414 30.9622 30.9337 31.0109 31.187 31.0109C31.5132 31.0109 31.7786 30.9379 31.9831 30.7918C32.1925 30.6408 32.2972 30.446 32.2972 30.2074L32.3922 30.726C32.3143 30.9744 32.1609 31.1667 31.932 31.3031C31.708 31.4394 31.4329 31.5076 31.1066 31.5076ZM34.8038 31.4346V26.1754H35.4027V31.4346H34.8038ZM35.1106 31.4346V30.9087H38.1054V31.4346H35.1106ZM40.8071 31.4346C40.7876 31.3518 40.773 31.2568 40.7633 31.1497C40.7584 31.0426 40.756 30.9062 40.756 30.7407H40.7194V28.9584C40.7194 28.676 40.6537 28.469 40.5222 28.3375C40.3956 28.2012 40.1887 28.133 39.9014 28.133C39.6189 28.133 39.3925 28.1914 39.222 28.3083C39.0565 28.4203 38.964 28.581 38.9445 28.7904H38.382C38.4064 28.43 38.5574 28.1476 38.8349 27.9431C39.1125 27.7386 39.4753 27.6363 39.9233 27.6363C40.3859 27.6363 40.7292 27.7459 40.9532 27.965C41.1772 28.1841 41.2892 28.5128 41.2892 28.9511V30.7407C41.2892 30.8478 41.2965 30.9598 41.3111 31.0767C41.3257 31.1887 41.3452 31.308 41.3695 31.4346H40.8071ZM39.5288 31.5076C39.1441 31.5076 38.8374 31.4151 38.6085 31.23C38.3845 31.0401 38.2725 30.782 38.2725 30.4558C38.2725 30.1295 38.3845 29.8763 38.6085 29.6961C38.8325 29.516 39.1587 29.3894 39.5873 29.3163L40.8874 29.0972V29.5793L39.6749 29.7692C39.4022 29.813 39.1953 29.886 39.054 29.9883C38.9128 30.0906 38.8422 30.2391 38.8422 30.4339C38.8422 30.6238 38.9055 30.7674 39.0321 30.8648C39.1636 30.9622 39.356 31.0109 39.6092 31.0109C39.9354 31.0109 40.2008 30.9379 40.4054 30.7918C40.6147 30.6408 40.7194 30.446 40.7194 30.2074L40.8144 30.726C40.7365 30.9744 40.5831 31.1667 40.3542 31.3031C40.1302 31.4394 39.8551 31.5076 39.5288 31.5076ZM43.0134 31.4346L41.4722 27.7094H42.1003L43.3859 31.0401H43.1522L44.4304 27.7094H45.0294L43.4882 31.4346H43.0134ZM47.5727 31.4346C47.5532 31.3518 47.5386 31.2568 47.5289 31.1497C47.524 31.0426 47.5216 30.9062 47.5216 30.7407H47.4851V28.9584C47.4851 28.676 47.4193 28.469 47.2878 28.3375C47.1612 28.2012 46.9543 28.133 46.667 28.133C46.3845 28.133 46.1581 28.1914 45.9877 28.3083C45.8221 28.4203 45.7296 28.581 45.7101 28.7904H45.1477C45.172 28.43 45.323 28.1476 45.6005 27.9431C45.8781 27.7386 46.2409 27.6363 46.6889 27.6363C47.1515 27.6363 47.4948 27.7459 47.7188 27.965C47.9428 28.1841 48.0548 28.5128 48.0548 28.9511V30.7407C48.0548 30.8478 48.0621 30.9598 48.0767 31.0767C48.0913 31.1887 48.1108 31.308 48.1352 31.4346H47.5727ZM46.2945 31.5076C45.9098 31.5076 45.603 31.4151 45.3741 31.23C45.1501 31.0401 45.0381 30.782 45.0381 30.4558C45.0381 30.1295 45.1501 29.8763 45.3741 29.6961C45.5981 29.516 45.9244 29.3894 46.3529 29.3163L47.6531 29.0972V29.5793L46.4405 29.7692C46.1678 29.813 45.9609 29.886 45.8197 29.9883C45.6785 30.0906 45.6078 30.2391 45.6078 30.4339C45.6078 30.6238 45.6712 30.7674 45.7978 30.8648C45.9292 30.9622 46.1216 31.0109 46.3748 31.0109C46.7011 31.0109 46.9665 30.9379 47.171 30.7918C47.3804 30.6408 47.4851 30.446 47.4851 30.2074L47.58 30.726C47.5021 30.9744 47.3487 31.1667 47.1198 31.3031C46.8958 31.4394 46.6207 31.5076 46.2945 31.5076ZM48.8333 31.4346V26.1754H49.4177V31.4346H48.8333Z" fill="#02121B"/>
<path d="M14.7383 4.2186C13.554 3.61084 12.0212 3.17736 10.5487 3.17736C9.07625 3.17736 7.16805 3.75607 7.16805 5.48776C7.16805 8.72768 14.0456 8.52435 14.0456 14.1328C14.0456 19.0753 10.1756 20.8673 5.75142 20.8673C3.8164 20.8673 1.82106 20.4048 0 19.7389L1.04124 16.3024C2.60311 17.0241 4.24988 17.69 5.9838 17.69C7.92105 17.69 9.82702 16.7068 9.82702 14.5394C9.82702 10.8973 2.94945 11.476 2.94945 6.09999C2.94721 1.84787 6.5871 0 10.4616 0C12.2223 0 14.0434 0.230146 15.6924 0.896006L14.7383 4.22084V4.2186Z" fill="#02121B"/>
<path d="M16.3493 5.63552H19.1535L19.8171 2.57435L23.9799 1.21582L23.0258 5.63775H26.4936L25.8858 8.47324H22.4158L20.9991 14.9732C20.912 15.3195 20.8271 15.8402 20.8271 16.4211C20.8271 17.3149 21.4348 17.8623 22.3018 17.8623C22.9945 17.8623 23.6894 17.7215 24.181 17.516L23.5151 20.5213C22.8492 20.6665 22.0985 20.8676 21.4348 20.8676C18.8027 20.8676 16.9548 19.8264 16.9548 16.9663C16.9548 15.8089 17.185 14.6827 17.4464 13.4962L18.5435 8.47101H15.7393L16.3471 5.63552H16.3493Z" fill="#02121B"/>
<path d="M37.6278 11.8489C37.6278 9.91161 36.9641 8.29165 34.6783 8.29165C31.6149 8.29165 30.0821 11.6746 30.0821 14.3626C30.0821 16.3289 30.891 17.8595 33.1187 17.8595C36.124 17.8595 37.6278 14.3916 37.6278 11.8489ZM41.6743 11.8198C41.6743 17.0528 38.0612 20.867 32.8014 20.867C28.5828 20.867 26.0378 18.2639 26.0378 14.0743C26.0378 9.10498 29.8542 5.28857 34.8548 5.28857C38.8701 5.28857 41.6765 7.7174 41.6765 11.8198H41.6743Z" fill="#02121B"/>
<path d="M125.325 11.8489C125.325 9.91161 124.661 8.29165 122.377 8.29165C119.314 8.29165 117.781 11.6746 117.781 14.3626C117.781 16.3289 118.59 17.8595 120.816 17.8595C123.821 17.8595 125.325 14.3916 125.325 11.8489ZM129.371 11.8198C129.371 17.0528 125.758 20.867 120.498 20.867C116.277 20.867 113.735 18.2639 113.735 14.0743C113.735 9.10498 117.551 5.28857 122.552 5.28857C126.569 5.28857 129.373 7.7174 129.373 11.8198H129.371Z" fill="#02121B"/>
<path d="M44.8248 7.63026C44.9388 6.99344 45.055 6.32982 45.1712 5.63491H48.8714L48.3485 8.43912H48.4066C49.1015 6.81916 51.0075 5.28857 52.7995 5.28857C53.2911 5.28857 53.8117 5.31762 54.272 5.43381L53.4631 9.21893C53.0297 9.07593 52.48 8.98655 51.9907 8.98655C49.2445 8.98655 47.9151 11.4444 47.4235 13.8442L46.0359 20.5207H42.1636L44.8248 7.63026Z" fill="#02121B"/>
<path d="M56.4126 7.28197C56.5266 6.70325 56.645 6.09548 56.7299 5.63296H60.343L59.9967 7.6283H60.0548C61.0938 6.09548 62.8009 5.28662 64.6219 5.28662C66.443 5.28662 68.206 6.32786 68.4071 8.11988H68.4652C69.4483 6.18263 71.6157 5.28662 73.6959 5.28662C75.9214 5.28662 77.8296 7.10768 77.8296 9.36222C77.8296 10.6917 77.4833 12.1955 77.1638 13.411L75.6019 20.5187H71.7319L73.2915 13.2635C73.4926 12.3675 73.7831 10.9799 73.7831 10.0839C73.7831 8.9846 72.9452 8.29193 71.962 8.29193C69.2763 8.29193 68.6104 11.4134 68.1188 13.4378L66.5882 20.5187H62.716L64.2756 13.2635C64.4767 12.3675 64.7672 10.9799 64.7672 10.0839C64.7672 8.9846 63.927 8.29193 62.9461 8.29193C60.3184 8.29193 59.5922 11.4447 59.1029 13.4378L57.5701 20.5187H53.6978L56.4149 7.28197H56.4126Z" fill="#02121B"/>
<path d="M97.7183 4.62303C96.1586 3.61307 94.2236 3.17736 92.1121 3.17736C87.1986 3.17736 84.1061 7.02281 84.1061 11.7911C84.1061 15.0578 86.3607 17.6877 89.8017 17.6877C90.7268 17.6877 91.3345 17.6877 91.7948 17.4844L92.9232 12.1397H88.6443L89.3101 8.96229H97.4904L95.1777 19.9736C93.9935 20.4651 91.739 20.8696 89.7727 20.8696C83.8469 20.8696 79.8875 18.1525 79.8875 11.9073C79.8875 4.53813 84.7139 0 91.9981 0C94.2527 0 96.6234 0.319523 98.7327 1.12615L97.7205 4.62303H97.7183Z" fill="#02121B"/>
<path d="M108.928 11.6168C108.987 11.2704 109.018 10.9531 109.018 10.6046C109.018 9.01588 108.18 8.11988 106.56 8.11988C104.162 8.11988 103.123 9.56555 102.37 11.6168H108.931H108.928ZM101.85 14.2757C101.85 17.0241 103.322 18.034 105.983 18.034C107.572 18.034 109.105 17.6296 110.551 16.966L110.059 20.0294C108.557 20.4919 106.911 20.8673 105.32 20.8673C101.043 20.8673 98.1518 18.787 98.1518 14.3629C98.1518 9.9387 101.736 5.28662 106.62 5.28662C110.291 5.28662 112.718 7.16578 112.718 10.9531C112.718 12.0815 112.573 13.1786 112.343 14.2757H101.85Z" fill="#02121B"/>
</svg>